<svg width="32" height="41" viewBox="0 0 32 41" fill="none" xmlns="http://www.w3.org/2000/svg">
<path d="M11.7637 14.176C8.27114 14.176 5.43986 17.0073 5.43986 20.4999C5.43986 23.9925 8.27114 26.8238 11.7637 26.8238C15.2563 26.8238 18.0876 23.9925 18.0876 20.4999C18.0876 17.0073 15.2563 14.176 11.7637 14.176Z" fill="#076A70"/>
<path d="M0.369678 5.527C-0.168385 4.98894 -0.114422 4.09831 0.517853 3.67469C3.73431 1.52019 7.60306 0.263738 11.7652 0.263738C15.9275 0.263738 19.7962 1.52019 23.0128 3.67469C23.6449 4.09831 23.6989 4.98894 23.1609 5.527L18.5395 10.1485C18.1218 10.5661 17.4739 10.6322 16.9481 10.3628C15.3936 9.5664 13.6319 9.11716 11.7652 9.11716C9.89859 9.11716 8.13685 9.5664 6.58225 10.3628C6.05655 10.6322 5.40876 10.5661 4.99099 10.1485L0.369678 5.527Z" fill="#14B977"/>
<path d="M0.516235 37.3252C-0.116039 36.9018 -0.170002 36.011 0.368061 35.4729L4.98937 30.8515C5.40714 30.4338 6.05516 30.3679 6.58085 30.6372C8.13546 31.4336 9.89706 31.8829 11.7637 31.8829C18.0503 31.8829 23.1466 26.7865 23.1466 20.4999C23.1466 18.6333 22.6973 16.8715 21.9009 15.3169C21.6316 14.7912 21.6976 14.1434 22.1153 13.7257L26.7367 9.10413C27.2747 8.5663 28.1655 8.62026 28.5889 9.25231C30.7434 12.469 32 16.3377 32 20.4999C32 31.6762 22.9399 40.7363 11.7637 40.7363C7.60144 40.7363 3.7327 39.4797 0.516235 37.3252Z" fill="#076A70"/>
</svg>
